<svg width="1300" height="1160" viewBox="0 0 1300 1160" fill="none" xmlns="http://www.w3.org/2000/svg">
<path d="M891.66 167.138L926.001 295.222C928.084 302.988 934.129 309.058 941.86 311.147L1069.38 345.603C1077.11 347.693 1085.35 345.482 1091 339.806L1184.18 246.178C1189.83 240.502 1192.02 232.221 1189.94 224.456L1155.6 96.3714C1153.52 88.6076 1147.47 82.5385 1139.74 80.4492L1012.22 45.9891C1004.49 43.8999 996.249 46.11 990.6 51.7869L897.425 145.418C891.777 151.094 889.58 159.373 891.66 167.138Z" fill="#DADFFD"/>
<path d="M1050.57 235.42C1059.8 232.944 1069.31 238.461 1071.8 247.742C1074.28 257.023 1068.82 266.554 1059.58 269.03C1050.35 271.505 1040.85 265.988 1038.36 256.707C1035.87 247.426 1041.34 237.895 1050.57 235.42Z" fill="white"/>
<path d="M1022.15 230.484C1024.73 227.322 1027.64 224.449 1030.83 221.916L1028.51 223.729C1032.31 220.781 1036.48 218.337 1040.91 216.457L1038.1 217.633C1043.18 215.518 1048.52 214.083 1053.98 213.365L1050.96 213.754C1055.69 213.162 1060.47 213.184 1065.2 213.819L1062.28 213.411C1065.97 213.949 1069.6 214.862 1073.1 216.138C1075.75 217.098 1079.51 216.364 1081.85 214.985C1084.39 213.463 1086.24 211.022 1087.04 208.163C1087.84 205.197 1087.41 202.032 1085.87 199.375C1084.27 196.894 1081.87 195.045 1079.07 194.139C1069.06 190.507 1058.52 189.933 1048.07 191.324C1031.65 193.476 1016.64 201.713 1005.98 214.42C1003.97 216.582 1002.81 219.399 1002.7 222.357C1002.71 225.427 1003.93 228.371 1006.08 230.553C1008.2 232.64 1011.03 233.825 1013.99 233.861C1016.89 233.755 1020.23 232.822 1022.14 230.485L1022.15 230.484Z" fill="white"/>
<path d="M986.825 206.138C991.772 199.738 997.482 193.972 1003.83 188.97L1001.51 190.784C1008.3 185.519 1015.75 181.174 1023.68 177.862L1020.87 179.037C1029.66 175.4 1038.88 172.923 1048.31 171.668L1045.29 172.051C1053.75 170.948 1062.32 170.969 1070.78 172.114L1067.86 171.706C1075.76 172.843 1083.48 174.964 1090.86 178.02C1093.39 179.066 1097.36 178.183 1099.6 176.866C1102.14 175.344 1104 172.903 1104.8 170.044C1105.59 167.078 1105.17 163.914 1103.62 161.256L1101.81 158.918C1100.42 157.538 1098.7 156.539 1096.82 156.018C1080.96 149.511 1063.72 147.122 1046.72 149.072C1026.99 151.386 1007.49 157.931 991.469 169.943C983.661 175.682 976.66 182.45 970.652 190.067C968.762 192.501 967.397 194.786 967.379 198.005C967.39 201.074 968.605 204.019 970.76 206.2C972.876 208.287 975.71 209.473 978.671 209.509C981.516 209.403 984.989 208.493 986.821 206.133L986.825 206.138Z" fill="white"/>
<path d="M948.653 179.832C955.026 172.727 962.002 166.192 969.503 160.301L967.18 162.114C978.581 153.259 991.093 145.947 1004.4 140.366L1001.59 141.54C1016.69 135.236 1032.56 130.975 1048.79 128.87L1045.77 129.259C1060.01 127.425 1074.43 127.487 1088.67 129.443L1085.75 129.035C1094.8 130.332 1103.72 132.404 1112.43 135.23C1118.09 137.068 1125.05 133.077 1126.36 127.254C1127.87 121.198 1124.35 115.014 1118.39 113.23C1106.54 109.441 1094.33 106.954 1081.95 105.811C1068.39 104.635 1054.75 105.048 1041.29 107.039C1027.4 108.957 1013.78 112.462 1000.69 117.486C987.855 122.289 975.616 128.56 964.216 136.176C952.57 144.057 941.917 153.322 932.487 163.772C930.459 165.92 929.294 168.746 929.214 171.71C929.225 174.779 930.44 177.724 932.597 179.905C936.988 183.903 944.409 184.569 948.656 179.836L948.653 179.832Z" fill="white"/>
<path fill-rule="evenodd" clip-rule="evenodd" d="M1178.48 577.439C1180.07 578.014 1181.74 578.39 1183.43 578.558C1188.6 579.074 1193.75 577.638 1197.75 574.565L1278.58 512.299C1283.95 508.15 1286.54 501.596 1285.38 495.091L1267.8 397.288C1266.62 390.787 1261.87 385.327 1255.33 382.953L1156.92 347.417C1150.37 345.063 1143.03 346.158 1137.65 350.291L1056.82 412.557C1051.45 416.705 1048.86 423.259 1050.02 429.764L1067.6 527.568C1068.78 534.069 1073.53 539.529 1080.07 541.902L1178.48 577.439ZM1139.86 352.83C1143.16 350.301 1147.39 349.119 1151.65 349.544C1153.04 349.682 1154.41 349.992 1155.72 350.465L1254.13 386.001C1259.51 387.955 1263.42 392.447 1264.39 397.797L1281.97 495.6C1282.92 500.953 1280.79 506.346 1276.37 509.76L1195.54 572.027C1191.11 575.426 1185.07 576.327 1179.68 574.391L1081.27 538.855C1075.89 536.902 1071.98 532.409 1071.01 527.059L1053.43 429.256C1052.48 423.903 1054.61 418.509 1059.03 415.096L1139.86 352.83Z" fill="#DADFFD"/>
<path d="M1142.3 365.113L1071.34 419.767C1067.04 423.081 1064.97 428.328 1065.9 433.533L1081.33 519.38C1082.27 524.585 1086.07 528.957 1091.31 530.848L1177.69 562.041C1182.93 563.932 1188.81 563.055 1193.11 559.742L1264.06 505.088C1268.36 501.775 1270.44 496.527 1269.5 491.322L1254.07 405.477C1253.13 400.272 1249.33 395.901 1244.09 394.009L1157.71 362.815C1152.47 360.923 1146.6 361.8 1142.3 365.113Z" fill="#DADFFD"/>
<path d="M1133.73 434.957L1206.42 442.194C1212.1 442.76 1216.27 447.556 1215.74 452.907L1208.92 521.388C1208.39 526.738 1203.35 530.618 1197.67 530.052L1124.98 522.814C1119.3 522.249 1115.13 517.453 1115.67 512.102L1122.48 443.621C1123.02 438.27 1128.05 434.391 1133.73 434.957Z" fill="white"/>
<path d="M1168.01 459.279C1174.74 459.949 1179.69 465.631 1179.05 471.971C1178.42 478.311 1172.46 482.907 1165.73 482.237C1159 481.567 1154.06 475.884 1154.69 469.545C1155.32 463.205 1161.28 458.609 1168.01 459.279Z" fill="#DADFFD"/>
<path d="M1166.59 464.586L1168.36 464.762C1171.11 465.037 1173.13 467.357 1172.87 469.945L1170.09 497.885C1169.83 500.474 1167.39 502.351 1164.64 502.077L1162.88 501.901C1160.13 501.628 1158.11 499.307 1158.37 496.718L1161.15 468.778C1161.41 466.189 1163.84 464.312 1166.59 464.586Z" fill="white"/>
<path d="M1206.19 444.737L1196.54 443.776C1196.65 442.695 1197.86 430.487 1197.92 429.786C1198.68 416.206 1187.91 404.361 1173.55 402.969C1159.18 401.576 1146.35 411.134 1144.5 424.608C1144.43 425.221 1143.21 437.332 1143.1 438.455L1133.45 437.494C1133.46 437.358 1134.82 423.808 1134.88 423.334C1137.4 404.973 1154.9 391.955 1174.47 393.878C1194.05 395.8 1208.68 411.973 1207.59 430.474C1207.56 430.989 1206.21 444.601 1206.19 444.737Z" fill="white"/>
<path fill-rule="evenodd" clip-rule="evenodd" d="M456.112 527.722C458.209 528.419 460.403 528.775 462.612 528.779C465.25 528.786 467.861 528.257 470.288 527.225C474.773 525.396 478.24 521.708 479.788 517.119L487.018 489.085C517.368 493.102 548.219 490.841 577.658 482.442L588.757 508.8L588.898 509.106C593.234 517.728 604.437 520.887 613.869 516.142L659.883 493.003C664.265 490.84 667.705 487.149 669.554 482.625C671.431 478.16 671.273 473.101 669.123 468.761L654.441 443.82C678.726 425.196 698.929 401.783 713.797 375.033L740.297 385.827L740.612 385.943C749.779 388.977 759.931 383.285 763.245 373.261L779.417 324.361C782.732 314.337 777.974 303.717 768.81 300.686L740.78 293.427C744.79 263.086 742.528 232.246 734.133 202.815L760.493 191.715L760.799 191.574C765.113 189.373 768.256 185.405 769.41 180.702C770.624 175.967 770.064 170.952 767.835 166.602L744.695 120.59C739.953 111.158 729.076 107.015 720.453 111.35L695.511 126.031C676.891 101.749 653.483 81.55 626.738 66.684L637.52 40.174L637.636 39.86C640.666 30.695 634.976 20.543 624.954 17.228L576.054 1.055C566.027 -2.26 555.409 2.499 552.378 11.662L545.158 39.698C514.801 35.679 483.941 37.9404 454.494 46.342L443.41 19.985L443.268 19.677C441.067 15.3638 437.098 12.2213 432.395 11.067C427.661 9.85186 422.645 10.4121 418.295 12.642L372.284 35.775C362.852 40.517 358.707 51.393 363.044 60.017L377.736 84.951C353.443 103.579 333.234 126.999 318.363 153.758L291.873 142.952L291.555 142.834C286.949 141.34 281.92 141.924 277.778 144.434C273.573 146.923 270.423 150.866 268.923 155.517L252.75 204.417C249.435 214.441 254.194 225.062 263.358 228.092L291.385 235.337C287.372 265.686 289.636 296.536 298.035 325.974L271.674 337.061L271.365 337.203C267.052 339.404 263.909 343.372 262.754 348.075C261.541 352.81 262.101 357.825 264.329 362.175L287.469 408.187C292.211 417.619 303.086 421.765 311.711 417.427L336.646 402.736C355.265 427.018 378.672 447.219 405.415 462.087L394.644 488.605L394.529 488.917C393.036 493.524 393.62 498.552 396.129 502.694C398.619 506.899 402.561 510.049 407.212 511.549L456.112 527.722ZM404.771 497.66C403.752 496.029 403.465 494.044 403.983 492.192L418.058 457.542L414.078 455.432C385.674 440.37 361.03 419.1 341.978 393.202L339.3 389.573L307.092 408.566C303.469 410.279 298.605 408.082 296.405 403.704L273.265 357.692C272.135 355.521 271.836 353.012 272.425 350.637C272.857 348.764 274.058 347.159 275.732 346.215L310.199 331.72L308.88 327.402C299.439 296.651 297.055 264.167 301.905 232.367L302.575 227.909L266.363 218.562C262.59 217.209 260.704 212.215 262.243 207.562L278.416 158.662C279.152 156.328 280.714 154.343 282.81 153.08C284.44 152.06 286.424 151.774 288.276 152.291L322.904 166.417L325.026 162.432C340.089 134.009 361.368 109.349 387.279 90.287L390.908 87.609L371.914 55.401C370.2 51.78 372.399 46.914 376.777 44.714L422.788 21.574C424.959 20.4438 427.468 20.1451 429.843 20.734C431.717 21.1665 433.322 22.3671 434.266 24.042L448.761 58.505L453.08 57.186C483.842 47.7405 516.339 45.3579 548.149 50.216L552.613 50.888L561.92 14.666C563.27 10.895 568.263 9.01 572.914 10.549L621.814 26.722C626.467 28.261 629.351 32.751 628.185 36.585L614.096 71.229L618.075 73.349C646.482 88.408 671.128 109.677 690.181 135.574L692.858 139.201L725.069 120.222C728.689 118.507 733.558 120.705 735.758 125.083L758.899 171.093C760.03 173.263 760.329 175.772 759.739 178.147C759.307 180.021 758.106 181.627 756.43 182.571L721.972 197.082L723.29 201.399C732.726 232.141 735.109 264.615 730.262 296.405L729.592 300.861L765.802 310.223C769.575 311.572 771.46 316.565 769.921 321.218L753.749 370.118C752.211 374.771 747.72 377.654 743.887 376.489L709.252 362.38L707.131 366.362C692.071 394.775 670.799 419.427 644.896 438.485L641.268 441.162L660.25 473.382C661.033 475.139 661.039 477.144 660.268 478.906C659.326 481.164 657.59 483.001 655.388 484.069L609.377 507.21C604.998 509.411 599.783 508.277 597.898 504.742L583.387 470.283L579.07 471.601C548.318 481.041 515.833 483.423 484.033 478.568L479.572 477.897L470.245 514.114C469.556 515.909 468.144 517.332 466.353 518.033C464.09 518.963 461.565 519.034 459.253 518.233L410.353 502.06C408.018 501.323 406.033 499.758 404.771 497.66ZM516.219 403.33C463.697 403.276 415.673 373.678 392.019 326.784C357.619 258.374 385.279 174.729 453.689 140.324C522.099 105.919 605.744 133.583 640.149 201.993C674.554 270.403 646.889 354.049 578.478 388.453C559.175 398.213 537.85 403.309 516.219 403.33ZM392.072 229.414C407.71 173.962 458.258 135.63 515.872 135.53C564.702 135.262 609.436 162.781 631.214 206.486C657.104 257.956 645.682 320.358 603.24 359.32C560.797 398.282 497.648 404.337 448.576 374.148C399.503 343.96 376.433 284.865 392.072 229.414Z" fill="#DADFFD"/>
<path d="M516.083 150.069C579.22 150.069 630.403 201.252 630.403 264.389C630.403 327.526 579.22 378.709 516.083 378.709C452.946 378.709 401.763 327.526 401.763 264.389C401.763 201.252 452.946 150.069 516.083 150.069Z" fill="#DADFFD"/>
<path fill-rule="evenodd" clip-rule="evenodd" d="M1073.6 368.903C1075.97 369.537 1078.42 369.858 1080.87 369.858C1088.37 369.86 1095.56 366.889 1100.87 361.596L1208.08 254.388C1215.19 247.248 1217.98 236.862 1215.38 227.12L1176.14 80.672C1173.52 70.9384 1165.91 63.335 1156.18 60.709L1009.73 21.469C999.991 18.8737 989.603 21.6572 982.465 28.776L875.257 135.983C868.139 143.123 865.356 153.509 867.95 163.251L907.19 309.7C909.815 319.433 917.418 327.037 927.152 329.662L1073.6 368.903ZM986.002 32.312C990.371 27.9559 996.289 25.5105 1002.46 25.512C1004.48 25.5118 1006.49 25.7764 1008.44 26.299L1154.89 65.539C1162.9 67.7001 1169.15 73.9567 1171.31 81.966L1210.55 228.414C1212.69 236.431 1210.4 244.977 1204.54 250.853L1097.33 358.061C1091.46 363.917 1082.91 366.206 1074.89 364.073L928.447 324.833C920.437 322.672 914.18 316.416 912.02 308.406L872.78 161.958C870.644 153.941 872.934 145.394 878.792 139.519L986.002 32.312Z" fill="#DADFFD"/>
<path fill-rule="evenodd" clip-rule="evenodd" d="M1154.42 794.77C1156.76 795.876 1159.33 796.449 1161.92 796.447C1165.5 796.451 1169 795.361 1171.95 793.322L1245.05 742.669C1250.21 739.083 1253.07 733.023 1252.57 726.761L1245.25 638.127C1244.72 631.866 1240.91 626.359 1235.23 623.666L1154.81 585.685C1149.13 583.01 1142.45 583.561 1137.28 587.133L1064.18 637.785C1059.02 641.371 1056.16 647.431 1056.67 653.693L1063.98 742.328C1064.51 748.588 1068.33 754.096 1074 756.788L1154.42 794.77ZM1067.03 641.895L1140.13 591.242H1140.13C1143.83 588.686 1148.61 588.292 1152.68 590.206L1233.1 628.188C1237.16 630.115 1239.89 634.058 1240.27 638.539L1247.58 727.172C1247.95 731.655 1245.9 735.992 1242.2 738.56L1169.1 789.213C1165.4 791.769 1160.62 792.163 1156.55 790.248L1076.14 752.267C1072.07 750.34 1069.34 746.397 1068.96 741.916L1061.65 653.281C1061.28 648.799 1063.33 644.462 1067.03 641.895Z" fill="#DADFFD"/>
<path d="M1140.65 601.542L1076.48 646.003C1072.59 648.699 1070.43 653.265 1070.82 657.982L1077.25 735.782C1077.63 740.499 1080.51 744.65 1084.79 746.671L1155.38 780.009C1159.66 782.029 1164.69 781.614 1168.58 778.92L1232.74 734.459C1236.63 731.763 1238.79 727.196 1238.4 722.479L1231.98 644.679C1231.59 639.962 1228.71 635.811 1224.43 633.79L1153.85 600.452C1149.57 598.432 1144.54 598.847 1140.65 601.542Z" fill="#DADFFD"/>
<path d="M1129.32 696.83C1129.74 695.015 1129.55 693.115 1128.78 691.418C1127.89 689.804 1126.25 688.738 1124.41 688.568L1125.76 681.168C1127.54 681.655 1129.44 681.231 1130.85 680.035C1132.16 678.714 1133 677.002 1133.26 675.158C1133.55 673.539 1133.73 671.902 1133.8 670.258C1133.86 668.615 1133.9 666.956 1133.9 665.282C1133.9 663.608 1133.93 661.932 1134.01 660.255C1134.08 658.56 1134.27 656.872 1134.58 655.203C1134.99 652.763 1135.81 650.411 1137.01 648.248C1138.12 646.282 1139.66 644.596 1141.51 643.321C1143.5 642.002 1145.76 641.143 1148.11 640.806C1151 640.404 1153.94 640.495 1156.8 641.073L1159.54 641.573L1158.51 647.261C1158.44 647.669 1158.27 648.053 1158.01 648.373C1157.77 648.657 1157.47 648.886 1157.14 649.044C1156.83 649.191 1156.49 649.292 1156.15 649.344C1155.87 649.391 1155.58 649.392 1155.29 649.349L1154.83 649.264C1152.76 648.75 1150.56 649.219 1148.88 650.536C1147.19 652.079 1146.11 654.176 1145.83 656.447C1145.5 658.269 1145.27 660.11 1145.15 661.959C1145.05 663.737 1144.95 665.465 1144.88 667.144C1144.81 668.823 1144.73 670.473 1144.65 672.096C1144.57 673.728 1144.38 675.354 1144.09 676.962C1143.87 678.225 1143.46 679.447 1142.87 680.587C1142.32 681.668 1141.58 682.645 1140.69 683.477C1139.8 684.304 1138.79 684.994 1137.7 685.525C1136.56 686.078 1135.34 686.417 1134.08 686.525C1136.31 687.65 1138.1 689.477 1139.19 691.725C1139.73 692.826 1140.07 694.009 1140.22 695.225C1140.36 696.481 1140.32 697.752 1140.09 698.995C1139.8 700.603 1139.41 702.191 1138.91 703.749C1138.42 705.297 1137.91 706.869 1137.39 708.466C1136.87 710.063 1136.34 711.713 1135.82 713.417C1135.28 715.19 1134.85 716.993 1134.52 718.817C1133.99 721.025 1134.27 723.349 1135.31 725.369C1136.42 727.192 1138.31 728.402 1140.43 728.649L1140.89 728.733C1141.17 728.791 1141.45 728.894 1141.69 729.038C1142 729.206 1142.27 729.418 1142.51 729.668C1142.78 729.939 1142.97 730.267 1143.09 730.627C1143.22 731.028 1143.24 731.454 1143.16 731.867L1142.13 737.504L1139.39 737.004C1136.51 736.541 1133.73 735.594 1131.17 734.204C1129.08 733.062 1127.27 731.475 1125.87 729.556C1124.57 727.722 1123.72 725.611 1123.38 723.39C1123.02 720.942 1123.07 718.45 1123.54 716.021C1123.84 714.352 1124.26 712.705 1124.78 711.092C1125.31 709.492 1125.86 707.91 1126.45 706.346C1127.03 704.782 1127.59 703.208 1128.1 701.625C1128.62 700.056 1129.03 698.454 1129.32 696.83Z" fill="white"/>
<path d="M1175.97 705.292C1175.68 706.918 1175.49 708.562 1175.42 710.214C1175.35 711.875 1175.32 713.542 1175.32 715.214C1175.32 716.886 1175.28 718.562 1175.21 720.242C1175.13 721.936 1174.94 723.624 1174.64 725.293C1174.23 727.733 1173.4 730.085 1172.2 732.249C1171.1 734.209 1169.57 735.886 1167.71 737.149C1165.72 738.453 1163.46 739.303 1161.11 739.639C1158.22 740.04 1155.28 739.949 1152.42 739.372L1149.68 738.872L1150.7 733.236C1150.83 732.435 1151.35 731.75 1152.08 731.402C1152.39 731.253 1152.73 731.152 1153.07 731.102C1153.35 731.054 1153.64 731.052 1153.92 731.097L1154.39 731.181C1156.46 731.694 1158.65 731.225 1160.34 729.909C1162.02 728.382 1163.09 726.304 1163.37 724.051C1163.71 722.228 1163.94 720.388 1164.05 718.539C1164.16 716.761 1164.25 715.032 1164.33 713.353C1164.4 711.673 1164.48 710.023 1164.56 708.401C1164.64 706.769 1164.83 705.144 1165.12 703.536C1165.34 702.291 1165.75 701.086 1166.33 699.962C1166.89 698.878 1167.61 697.892 1168.49 697.042C1169.36 696.195 1170.37 695.503 1171.48 694.993C1172.63 694.46 1173.87 694.116 1175.13 693.974C1173.98 693.426 1172.94 692.677 1172.06 691.761C1171.22 690.888 1170.51 689.886 1169.98 688.793C1169.46 687.701 1169.12 686.53 1168.98 685.327C1168.83 684.053 1168.88 682.765 1169.12 681.505C1169.41 679.897 1169.8 678.309 1170.3 676.752C1170.79 675.204 1171.3 673.631 1171.82 672.034C1172.34 670.436 1172.86 668.786 1173.39 667.083C1173.93 665.31 1174.36 663.507 1174.69 661.683C1175.22 659.459 1174.95 657.116 1173.91 655.078C1172.8 653.255 1170.91 652.046 1168.79 651.799L1168.32 651.714C1168.04 651.657 1167.77 651.556 1167.52 651.414C1167.22 651.245 1166.95 651.033 1166.7 650.784C1166.44 650.519 1166.25 650.2 1166.13 649.851C1165.99 649.459 1165.97 649.039 1166.05 648.635L1167.08 642.947L1169.82 643.447C1172.7 643.91 1175.49 644.856 1178.05 646.247C1180.14 647.391 1181.95 648.987 1183.35 650.92C1184.64 652.767 1185.49 654.886 1185.83 657.113C1186.2 659.56 1186.14 662.052 1185.67 664.481C1185.37 666.15 1184.95 667.797 1184.43 669.41C1183.91 671.01 1183.35 672.592 1182.77 674.157C1182.18 675.721 1181.63 677.286 1181.11 678.851C1180.6 680.412 1180.19 682.008 1179.9 683.626C1179.49 685.441 1179.68 687.341 1180.44 689.038C1181.34 690.652 1182.97 691.719 1184.81 691.888L1183.47 699.288C1181.69 698.801 1179.78 699.225 1178.38 700.421C1177.07 701.74 1176.22 703.45 1175.97 705.292Z" fill="white"/>
<path d="M571.48 798.719H715.451V953.437H571.48V798.719Z" fill="#DADFFD"/>
<path d="M493.952 953.442V936.654C493.952 923.924 510.765 913.509 531.314 913.509H755.614C776.163 913.509 792.975 923.924 792.975 936.654V953.442H493.952Z" fill="#3344A8"/>
<path d="M176.829 218.247H1110.1C1117 218.247 1122.59 223.839 1122.59 230.737V814.647C1122.59 821.545 1117 827.137 1110.1 827.137H176.829C169.931 827.137 164.339 821.545 164.339 814.647V230.737C164.339 223.839 169.931 218.247 176.829 218.247Z" fill="#3344A8"/>
<path d="M192.522 254.238H1094.41V791.148H192.522V254.238Z" fill="#AAB7FD"/>
<path d="M264.913 280H774.007C781.139 280 786.92 285.781 786.92 292.913V742.453C786.92 749.585 781.139 755.366 774.007 755.366H264.913C261.488 755.366 258.203 754.005 255.782 751.584C253.36 749.162 252 745.877 252 742.452V292.913C252 285.781 257.781 280 264.913 280Z" fill="#DADFFD"/>
<path d="M252.113 313.475L252 293.11C252 285.9 258.131 280 265.624 280H773.296C780.789 280 786.919 285.9 786.919 293.11L786.727 313.475H252.113Z" fill="#3344A8"/>
<path d="M275.241 290.575C278.644 290.575 281.403 293.334 281.403 296.737C281.403 300.14 278.644 302.899 275.241 302.899C271.838 302.899 269.079 300.14 269.079 296.737C269.079 293.334 271.838 290.575 275.241 290.575Z" fill="#DADFFD"/>
<path d="M299.48 290.575C302.884 290.575 305.642 293.334 305.642 296.737C305.642 300.14 302.884 302.899 299.48 302.899C296.077 302.899 293.318 300.14 293.318 296.737C293.318 293.334 296.077 290.575 299.48 290.575Z" fill="#DADFFD"/>
<path d="M323.718 290.575C327.121 290.575 329.88 293.334 329.88 296.737C329.88 300.14 327.121 302.899 323.718 302.899C320.314 302.899 317.556 300.14 317.556 296.737C317.556 293.334 320.314 290.575 323.718 290.575Z" fill="#DADFFD"/>
<path d="M316.245 376.719H441.393C443.636 376.719 445.455 378.538 445.455 380.781C445.455 383.024 443.636 384.843 441.393 384.843H316.245C314.001 384.843 312.183 383.024 312.183 380.781C312.183 378.538 314.001 376.719 316.245 376.719Z" fill="white"/>
<path d="M293.921 376.719C294.933 376.719 295.904 377.121 296.62 377.837C297.336 378.552 297.739 379.523 297.739 380.536V381.026C297.739 382.038 297.336 383.01 296.62 383.725C295.904 384.441 294.933 384.843 293.921 384.843C292.908 384.843 291.937 384.441 291.221 383.725C290.506 383.009 290.104 382.038 290.104 381.026V380.536C290.104 378.428 291.812 376.719 293.921 376.719Z" fill="white"/>
<path d="M293.921 395.28C294.933 395.28 295.904 395.682 296.62 396.398C297.336 397.114 297.739 398.085 297.739 399.097V399.587C297.739 400.6 297.336 401.571 296.62 402.286C295.904 403.002 294.933 403.404 293.921 403.404C292.908 403.404 291.937 403.002 291.221 402.286C290.506 401.57 290.104 400.599 290.104 399.587V399.097C290.104 396.989 291.812 395.28 293.921 395.28Z" fill="white"/>
<path d="M321.962 419.082C322.974 419.082 323.945 419.484 324.661 420.2C325.377 420.916 325.78 421.887 325.78 422.899V423.389C325.78 424.402 325.377 425.373 324.661 426.088C323.945 426.804 322.974 427.206 321.962 427.206C320.949 427.206 319.978 426.804 319.263 426.088C318.547 425.372 318.145 424.401 318.145 423.389V422.899C318.145 420.791 319.853 419.082 321.962 419.082Z" fill="white"/>
<path d="M335.982 443.19C336.995 443.19 337.966 443.592 338.682 444.308C339.398 445.023 339.8 445.994 339.8 447.007V447.497C339.8 448.509 339.398 449.48 338.682 450.196C337.966 450.912 336.995 451.314 335.982 451.314C334.97 451.314 333.999 450.912 333.283 450.196C332.567 449.48 332.165 448.509 332.165 447.497V447.007C332.165 444.899 333.874 443.19 335.982 443.19Z" fill="white"/>
<path d="M335.982 464.989C336.995 464.989 337.966 465.391 338.682 466.107C339.398 466.822 339.8 467.794 339.8 468.806V469.296C339.8 470.309 339.398 471.28 338.682 471.995C337.966 472.711 336.995 473.113 335.982 473.113C334.97 473.113 333.999 472.711 333.283 471.995C332.567 471.279 332.165 470.308 332.165 469.296V468.806C332.165 466.698 333.874 464.989 335.982 464.989Z" fill="white"/>
<path d="M335.982 492.11C336.995 492.11 337.966 492.512 338.682 493.228C339.398 493.944 339.8 494.915 339.8 495.927V496.417C339.8 497.43 339.398 498.401 338.682 499.116C337.966 499.832 336.995 500.234 335.982 500.234C334.97 500.234 333.999 499.832 333.283 499.116C332.567 498.4 332.165 497.429 332.165 496.417V495.927C332.165 493.819 333.874 492.11 335.982 492.11Z" fill="white"/>
<path d="M321.962 515.935C322.974 515.935 323.945 516.337 324.661 517.053C325.377 517.769 325.78 518.74 325.78 519.752V520.242C325.78 521.255 325.377 522.226 324.661 522.941C323.945 523.657 322.974 524.059 321.962 524.059C320.949 524.059 319.978 523.657 319.263 522.941C318.547 522.225 318.145 521.254 318.145 520.242V519.752C318.145 517.644 319.853 515.935 321.962 515.935Z" fill="white"/>
<path d="M307.941 537.341C308.954 537.341 309.925 537.743 310.641 538.459C311.357 539.175 311.759 540.146 311.759 541.158V541.648C311.759 542.661 311.357 543.632 310.641 544.347C309.925 545.063 308.954 545.465 307.941 545.465C306.929 545.465 305.958 545.063 305.242 544.347C304.526 543.631 304.124 542.66 304.124 541.648V541.158C304.124 539.05 305.833 537.341 307.941 537.341Z" fill="white"/>
<path d="M293.921 558.554C294.933 558.554 295.904 558.956 296.62 559.672C297.336 560.387 297.739 561.358 297.739 562.371V562.861C297.739 563.873 297.336 564.844 296.62 565.56C295.904 566.276 294.933 566.678 293.921 566.678C292.908 566.678 291.937 566.276 291.221 565.56C290.506 564.844 290.104 563.873 290.104 562.861V562.371C290.104 560.263 291.812 558.554 293.921 558.554Z" fill="white"/>
<path d="M321.962 578.976C322.974 578.976 323.945 579.378 324.661 580.094C325.377 580.81 325.78 581.781 325.78 582.793V583.283C325.78 584.296 325.377 585.267 324.661 585.982C323.945 586.698 322.974 587.1 321.962 587.1C320.949 587.1 319.978 586.698 319.263 585.982C318.547 585.266 318.145 584.295 318.145 583.283V582.793C318.145 580.685 319.853 578.976 321.962 578.976Z" fill="white"/>
<path d="M315.139 396.182H421.939C424.183 396.182 426.001 398.001 426.001 400.244C426.001 402.488 424.183 404.306 421.939 404.306H315.139C312.896 404.306 311.077 402.488 311.077 400.244C311.077 398.001 312.896 396.182 315.139 396.182Z" fill="white"/>
<path d="M450.908 396.182H636.92C639.163 396.182 640.982 398.001 640.982 400.244C640.982 402.488 639.163 404.306 636.92 404.306H450.908C448.664 404.306 446.846 402.488 446.846 400.244C446.846 398.001 448.664 396.182 450.908 396.182Z" fill="white"/>
<path d="M341.24 419.357H407.907C410.15 419.357 411.969 421.176 411.969 423.419C411.969 425.662 410.15 427.481 407.907 427.481H341.24C338.996 427.481 337.178 425.662 337.178 423.419C337.178 421.176 338.996 419.357 341.24 419.357Z" fill="white"/>
<path d="M369.409 443.611H483.809C486.052 443.611 487.871 445.43 487.871 447.673C487.871 449.916 486.052 451.735 483.809 451.735H369.409C367.165 451.735 365.347 449.916 365.347 447.673C365.347 445.43 367.165 443.611 369.409 443.611Z" fill="white"/>
<path d="M362.814 466.209H502.165C504.408 466.209 506.227 468.028 506.227 470.271C506.227 472.514 504.408 474.333 502.165 474.333H362.814C360.571 474.333 358.752 472.514 358.752 470.271C358.752 468.028 360.571 466.209 362.814 466.209Z" fill="white"/>
<path d="M521.063 466.209H558.412C560.655 466.209 562.474 468.028 562.474 470.271C562.474 472.514 560.655 474.333 558.412 474.333H521.063C518.82 474.333 517.001 472.514 517.001 470.271C517.001 468.028 518.82 466.209 521.063 466.209Z" fill="white"/>
<path d="M477.215 376.719H602.363C604.607 376.719 606.425 378.538 606.425 380.781C606.425 383.024 604.607 384.843 602.363 384.843H477.215C474.972 384.843 473.153 383.024 473.153 380.781C473.153 378.538 474.972 376.719 477.215 376.719Z" fill="white"/>
<path d="M430.318 418.177H664.446C666.689 418.177 668.508 419.996 668.508 422.239C668.508 424.482 666.689 426.301 664.446 426.301H430.318C428.074 426.301 426.256 424.482 426.256 422.239C426.256 419.996 428.074 418.177 430.318 418.177Z" fill="white"/>
<path d="M355.26 492.255H421.927C424.171 492.255 425.989 494.074 425.989 496.317C425.989 498.56 424.171 500.379 421.927 500.379H355.26C353.017 500.379 351.198 498.56 351.198 496.317C351.198 494.074 353.017 492.255 355.26 492.255Z" fill="white"/>
<path d="M341.368 516.508H455.768C458.011 516.508 459.83 518.327 459.83 520.57C459.83 522.813 458.011 524.632 455.768 524.632H341.368C339.124 524.632 337.306 522.813 337.306 520.57C337.306 518.327 339.124 516.508 341.368 516.508Z" fill="white"/>
<path d="M334.773 539.106H568.901C571.144 539.106 572.963 540.925 572.963 543.168C572.963 545.411 571.144 547.23 568.901 547.23H334.773C332.53 547.23 330.711 545.411 330.711 543.168C330.711 540.925 332.53 539.106 334.773 539.106Z" fill="white"/>
<path d="M319.08 558.953H444.228C446.471 558.953 448.29 560.772 448.29 563.015C448.29 565.259 446.471 567.077 444.228 567.077H319.08C316.836 567.077 315.018 565.259 315.018 563.015C315.018 560.772 316.836 558.953 319.08 558.953Z" fill="white"/>
<path d="M343.18 578.416H449.98C452.224 578.416 454.042 580.235 454.042 582.478C454.042 584.721 452.224 586.54 449.98 586.54H343.18C340.937 586.54 339.118 584.721 339.118 582.478C339.118 580.235 340.937 578.416 343.18 578.416Z" fill="white"/>
<path d="M321.962 602.866C322.974 602.866 323.945 603.268 324.661 603.984C325.377 604.699 325.78 605.67 325.78 606.683V607.173C325.78 608.185 325.377 609.156 324.661 609.872C323.945 610.588 322.974 610.99 321.962 610.99C320.949 610.99 319.978 610.588 319.263 609.872C318.547 609.156 318.145 608.185 318.145 607.173V606.683C318.145 604.575 319.853 602.866 321.962 602.866Z" fill="white"/>
<path d="M343.18 602.305H427.192C429.436 602.305 431.254 604.124 431.254 606.367C431.254 608.61 429.436 610.429 427.192 610.429H343.18C340.937 610.429 339.118 608.61 339.118 606.367C339.118 604.124 340.937 602.305 343.18 602.305Z" fill="white"/>
<path d="M321.962 625.64C322.974 625.64 323.945 626.042 324.661 626.758C325.377 627.473 325.78 628.444 325.78 629.457V629.947C325.78 630.959 325.377 631.93 324.661 632.646C323.945 633.362 322.974 633.764 321.962 633.764C320.949 633.764 319.978 633.362 319.263 632.646C318.547 631.93 318.145 630.959 318.145 629.947V629.457C318.145 627.349 319.853 625.64 321.962 625.64Z" fill="white"/>
<path d="M335.982 649.749C336.995 649.749 337.966 650.151 338.682 650.867C339.398 651.582 339.8 652.554 339.8 653.566V654.056C339.8 655.069 339.398 656.04 338.682 656.755C337.966 657.471 336.995 657.873 335.982 657.873C334.97 657.873 333.999 657.471 333.283 656.755C332.567 656.039 332.165 655.068 332.165 654.056V653.566C332.165 651.458 333.874 649.749 335.982 649.749Z" fill="white"/>
<path d="M335.982 671.548C336.995 671.548 337.966 671.95 338.682 672.666C339.398 673.382 339.8 674.353 339.8 675.365V675.855C339.8 676.868 339.398 677.839 338.682 678.554C337.966 679.27 336.995 679.672 335.982 679.672C334.97 679.672 333.999 679.27 333.283 678.554C332.567 677.838 332.165 676.867 332.165 675.855V675.365C332.165 673.257 333.874 671.548 335.982 671.548Z" fill="white"/>
<path d="M335.982 698.668C336.995 698.668 337.966 699.07 338.682 699.786C339.398 700.501 339.8 701.472 339.8 702.485V702.975C339.8 703.987 339.398 704.958 338.682 705.674C337.966 706.39 336.995 706.792 335.982 706.792C334.97 706.792 333.999 706.39 333.283 705.674C332.567 704.958 332.165 703.987 332.165 702.975V702.485C332.165 700.377 333.874 698.668 335.982 698.668Z" fill="white"/>
<path d="M321.962 722.494C322.974 722.494 323.945 722.896 324.661 723.612C325.377 724.327 325.78 725.298 325.78 726.311V726.801C325.78 727.813 325.377 728.784 324.661 729.5C323.945 730.216 322.974 730.618 321.962 730.618C320.949 730.618 319.978 730.216 319.263 729.5C318.547 728.784 318.145 727.813 318.145 726.801V726.311C318.145 724.203 319.853 722.494 321.962 722.494Z" fill="white"/>
<path d="M341.24 625.916H407.907C410.15 625.916 411.969 627.735 411.969 629.978C411.969 632.221 410.15 634.04 407.907 634.04H341.24C338.996 634.04 337.178 632.221 337.178 629.978C337.178 627.735 338.996 625.916 341.24 625.916Z" fill="white"/>
<path d="M369.409 650.17H483.809C486.052 650.17 487.871 651.989 487.871 654.232C487.871 656.475 486.052 658.294 483.809 658.294H369.409C367.165 658.294 365.347 656.475 365.347 654.232C365.347 651.989 367.165 650.17 369.409 650.17Z" fill="white"/>
<path d="M362.814 672.768H524.352C526.595 672.768 528.414 674.587 528.414 676.83C528.414 679.073 526.595 680.892 524.352 680.892H362.814C360.571 680.892 358.752 679.073 358.752 676.83C358.752 674.587 360.571 672.768 362.814 672.768Z" fill="white"/>
<path d="M355.26 698.813H421.927C424.171 698.813 425.989 700.632 425.989 702.875C425.989 705.118 424.171 706.937 421.927 706.937H355.26C353.017 706.937 351.198 705.118 351.198 702.875C351.198 700.632 353.017 698.813 355.26 698.813Z" fill="white"/>
<path d="M341.368 723.067H455.768C458.011 723.067 459.83 724.886 459.83 727.129C459.83 729.372 458.011 731.191 455.768 731.191H341.368C339.124 731.191 337.306 729.372 337.306 727.129C337.306 724.886 339.124 723.067 341.368 723.067Z" fill="white"/>
<path d="M285.591 345.705L299.843 338.273V341.44C299.845 341.671 299.783 341.899 299.664 342.097C299.517 342.319 299.311 342.497 299.07 342.61L292.538 345.957C292.257 346.103 291.965 346.226 291.665 346.326C291.359 346.428 291.032 346.521 290.684 346.605C291.032 346.689 291.359 346.782 291.665 346.884C291.965 346.984 292.257 347.107 292.538 347.253L299.07 350.618C299.311 350.731 299.517 350.909 299.664 351.131C299.783 351.329 299.845 351.556 299.843 351.787V354.955L285.591 347.505L285.591 345.705Z" fill="white"/>
<path d="M306.339 358.734V331.992H310.784V342.268C311.486 341.597 312.287 341.038 313.16 340.612C314.113 340.174 315.153 339.959 316.201 339.983C317.12 339.966 318.033 340.14 318.882 340.495C319.635 340.817 320.304 341.31 320.835 341.935C321.375 342.586 321.779 343.339 322.023 344.149C322.3 345.068 322.435 346.023 322.423 346.983V358.734H317.978V346.983C318.038 346.044 317.76 345.115 317.195 344.364C316.595 343.713 315.73 343.372 314.847 343.438C314.096 343.434 313.355 343.613 312.688 343.96C311.982 344.332 311.339 344.812 310.78 345.381V358.734H306.339Z" fill="white"/>
<path d="M332.865 359.022C331.498 359.109 330.159 358.616 329.176 357.663C328.264 356.633 327.797 355.284 327.876 353.911V343.599H326.004C325.757 343.609 325.519 343.512 325.35 343.333C325.18 343.153 325.098 342.909 325.123 342.664V340.9L328.092 340.414L329.028 335.376C329.064 335.155 329.182 334.955 329.36 334.818C329.55 334.68 329.782 334.609 330.018 334.618H332.318V340.43H337.177V343.597H332.318V353.603C332.288 354.091 332.442 354.572 332.75 354.953C333.041 355.279 333.463 355.457 333.901 355.439C334.135 355.445 334.37 355.411 334.594 355.339C334.76 355.281 334.922 355.212 335.08 355.132C335.218 355.06 335.341 354.991 335.449 354.925C335.545 354.862 335.657 354.827 335.773 354.825C335.889 354.82 336.003 354.855 336.097 354.925C336.199 355.013 336.29 355.113 336.367 355.225L337.699 357.384C337.039 357.93 336.281 358.345 335.467 358.608C334.627 358.883 333.748 359.023 332.865 359.022Z" fill="white"/>
<path d="M340.729 358.734V340.271H343.446C343.969 340.233 344.445 340.573 344.58 341.08L344.868 342.448C345.184 342.095 345.523 341.764 345.885 341.458C346.234 341.161 346.614 340.902 347.018 340.684C347.43 340.464 347.866 340.293 348.318 340.172C348.814 340.042 349.325 339.978 349.838 339.983C350.877 339.941 351.897 340.277 352.709 340.927C353.486 341.597 354.067 342.465 354.392 343.438C354.659 342.855 355.024 342.323 355.471 341.863C355.887 341.436 356.367 341.075 356.893 340.793C357.411 340.516 357.965 340.31 358.539 340.18C359.114 340.048 359.703 339.981 360.294 339.98C361.221 339.963 362.142 340.122 363.011 340.447C363.775 340.74 364.46 341.209 365.011 341.815C365.572 342.453 365.992 343.203 366.244 344.015C366.539 344.977 366.681 345.979 366.666 346.985V358.736H362.213V346.983C362.282 346.034 362.008 345.091 361.439 344.328C360.854 343.706 360.022 343.379 359.171 343.438C358.737 343.434 358.306 343.513 357.903 343.672C357.518 343.824 357.169 344.053 356.877 344.346C356.569 344.661 356.333 345.039 356.184 345.453C356.007 345.943 355.922 346.462 355.932 346.983V358.734H351.469V346.983C351.551 346.023 351.286 345.064 350.722 344.283C350.149 343.69 349.344 343.38 348.522 343.438C347.893 343.436 347.275 343.6 346.731 343.914C346.142 344.257 345.616 344.696 345.175 345.214V358.729L340.729 358.734Z" fill="white"/>
<path d="M375.766 331.992V358.734H371.321V331.992H375.766Z" fill="white"/>
<path d="M382.532 354.955V351.783C382.53 351.552 382.592 351.325 382.712 351.127C382.859 350.905 383.065 350.727 383.306 350.614L389.838 347.249C390.429 346.963 391.051 346.745 391.692 346.601C391.344 346.517 391.017 346.424 390.711 346.322C390.411 346.222 390.119 346.099 389.838 345.953L383.306 342.606C383.065 342.493 382.859 342.315 382.712 342.093C382.592 341.895 382.53 341.667 382.532 341.436V338.273L396.784 345.705V347.505L382.532 354.955Z" fill="white"/>
<path d="M584.361 381.209H1032.79C1039.92 381.209 1045.71 386.99 1045.71 394.122V710.845C1045.71 717.977 1039.92 723.758 1032.79 723.758H584.361C577.23 723.758 571.448 717.977 571.448 710.845V394.122C571.448 386.99 577.23 381.209 584.361 381.209Z" fill="white"/>
<path d="M571.558 414.684L571.445 394.319C571.445 387.108 577.576 381.209 585.069 381.209H1032.08C1039.57 381.209 1045.7 387.109 1045.7 394.319L1045.51 414.684H571.558Z" fill="#3344A8"/>
<path d="M594.689 391.784C598.093 391.784 600.851 394.543 600.851 397.946C600.851 401.349 598.093 404.108 594.689 404.108C591.286 404.108 588.527 401.349 588.527 397.946C588.527 394.543 591.286 391.784 594.689 391.784Z" fill="white"/>
<path d="M618.928 391.784C622.331 391.784 625.09 394.543 625.09 397.946C625.09 401.349 622.331 404.108 618.928 404.108C615.524 404.108 612.766 401.349 612.766 397.946C612.766 394.543 615.524 391.784 618.928 391.784Z" fill="white"/>
<path d="M643.166 391.784C646.569 391.784 649.328 394.543 649.328 397.946C649.328 401.349 646.569 404.108 643.166 404.108C639.763 404.108 637.004 401.349 637.004 397.946C637.004 394.543 639.763 391.784 643.166 391.784Z" fill="white"/>
<path d="M582.566 425.531H1035.62V709.1H582.566V425.531Z" fill="#DADFFD"/>
<path d="M719.32 439.542H731.184L732.757 443.089H757.208C758.101 443.089 758.958 443.443 759.589 444.075C760.221 444.706 760.575 445.563 760.575 446.456V481.442H715.953V442.905C715.955 441.047 717.462 439.542 719.32 439.542Z" fill="white"/>
<path d="M742.175 450.49H698.84C698.153 450.49 697.518 450.855 697.173 451.448C696.828 452.041 696.824 452.773 697.163 453.37L713.633 482.357C713.975 482.96 714.615 483.332 715.309 483.332H758.645C759.331 483.332 759.966 482.968 760.311 482.374C760.657 481.781 760.66 481.049 760.321 480.452L743.852 451.465C743.509 450.862 742.868 450.49 742.175 450.49V450.49Z" fill="#AAB7FD"/>
<path d="M704.27 489.714H755.633C756.39 489.714 757.116 490.014 757.651 490.549C758.186 491.084 758.487 491.81 758.487 492.567C758.487 494.143 757.21 495.42 755.634 495.42H704.27C702.694 495.42 701.417 494.143 701.417 492.567C701.417 490.991 702.694 489.714 704.27 489.714Z" fill="white"/>
<path d="M719.32 516.142H731.184L732.757 519.689H757.208C758.101 519.689 758.957 520.043 759.589 520.675C760.22 521.306 760.575 522.162 760.575 523.055V558.042H715.953V519.51C715.953 518.617 716.307 517.76 716.939 517.129C717.57 516.497 718.427 516.142 719.32 516.142Z" fill="white"/>
<path d="M742.174 527.095H698.839C698.152 527.093 697.515 527.458 697.169 528.051C696.823 528.645 696.818 529.378 697.158 529.976L713.628 558.962C713.971 559.565 714.611 559.938 715.304 559.938H758.64C759.327 559.938 759.962 559.573 760.307 558.979C760.652 558.386 760.656 557.654 760.316 557.057L743.847 528.071C743.505 527.469 742.867 527.097 742.174 527.095Z" fill="#AAB7FD"/>
<path d="M704.27 566.32H755.633C756.39 566.32 757.116 566.62 757.651 567.155C758.186 567.69 758.487 568.416 758.487 569.173C758.487 570.749 757.21 572.026 755.634 572.026H704.27C702.694 572.026 701.417 570.749 701.417 569.173C701.417 567.597 702.694 566.32 704.27 566.32Z" fill="white"/>
<path d="M719.32 592.225H731.184L732.757 595.772H757.208C758.101 595.772 758.958 596.126 759.589 596.758C760.221 597.389 760.575 598.246 760.575 599.139V634.126H715.953V595.592C715.953 593.733 717.461 592.225 719.32 592.225Z" fill="white"/>
<path d="M742.175 603.177H698.84C698.153 603.177 697.518 603.542 697.173 604.135C696.828 604.728 696.824 605.46 697.163 606.057L713.633 635.042C713.975 635.645 714.615 636.017 715.309 636.017H758.645C759.331 636.017 759.966 635.653 760.311 635.059C760.657 634.466 760.66 633.734 760.321 633.137L743.852 604.152C743.509 603.549 742.868 603.177 742.175 603.177V603.177Z" fill="#AAB7FD"/>
<path d="M704.27 642.401H755.633C756.39 642.401 757.116 642.701 757.651 643.236C758.186 643.771 758.487 644.497 758.487 645.254C758.487 646.83 757.21 648.107 755.634 648.107H704.27C702.694 648.107 701.417 646.83 701.417 645.254C701.417 643.678 702.694 642.401 704.27 642.401Z" fill="white"/>
<path d="M803.264 439.542H815.128L816.701 443.089H841.152C842.046 443.089 842.902 443.443 843.534 444.075C844.165 444.706 844.52 445.563 844.519 446.456V481.442H799.897V442.905C799.9 441.047 801.406 439.542 803.264 439.542Z" fill="white"/>
<path d="M826.118 450.49H782.783C782.097 450.49 781.462 450.855 781.116 451.448C780.771 452.041 780.767 452.773 781.106 453.37L797.576 482.357C797.919 482.96 798.559 483.332 799.252 483.332H842.588C843.274 483.332 843.909 482.968 844.255 482.374C844.6 481.781 844.603 481.049 844.264 480.452L827.795 451.465C827.452 450.862 826.812 450.49 826.118 450.49Z" fill="#AAB7FD"/>
<path d="M788.214 489.714H839.577C840.334 489.714 841.06 490.014 841.595 490.549C842.131 491.084 842.431 491.81 842.431 492.567C842.431 494.143 841.154 495.42 839.578 495.42H788.214C786.639 495.42 785.361 494.143 785.361 492.567C785.361 490.991 786.639 489.714 788.214 489.714Z" fill="white"/>
<path d="M803.264 516.142H815.128L816.701 519.689H841.152C842.045 519.689 842.902 520.043 843.533 520.675C844.165 521.306 844.519 522.162 844.519 523.055V558.042H799.897V519.51C799.897 518.617 800.252 517.76 800.883 517.129C801.515 516.497 802.371 516.142 803.264 516.142Z" fill="white"/>
<path d="M826.118 527.095H782.783C782.097 527.095 781.462 527.46 781.116 528.053C780.771 528.647 780.767 529.379 781.106 529.976L797.576 558.962C797.919 559.565 798.559 559.938 799.252 559.938H842.588C843.275 559.938 843.91 559.573 844.255 558.979C844.6 558.386 844.604 557.654 844.264 557.057L827.795 528.071C827.453 527.468 826.812 527.095 826.118 527.095Z" fill="#AAB7FD"/>
<path d="M788.214 566.32H839.577C840.334 566.32 841.06 566.62 841.595 567.155C842.131 567.69 842.431 568.416 842.431 569.173C842.431 570.749 841.154 572.026 839.578 572.026H788.214C786.639 572.026 785.361 570.749 785.361 569.173C785.361 567.597 786.639 566.32 788.214 566.32Z" fill="white"/>
<path d="M803.264 592.225H815.128L816.701 595.772H841.152C842.046 595.772 842.902 596.126 843.534 596.758C844.165 597.389 844.52 598.246 844.519 599.139V634.126H799.897V595.592C799.897 593.733 801.405 592.225 803.264 592.225Z" fill="white"/>
<path d="M826.118 603.177H782.783C782.097 603.177 781.462 603.542 781.116 604.135C780.771 604.728 780.767 605.46 781.106 606.057L797.576 635.042C797.919 635.645 798.559 636.017 799.252 636.017H842.588C843.274 636.017 843.909 635.653 844.255 635.059C844.6 634.466 844.603 633.734 844.264 633.137L827.795 604.15C827.451 603.548 826.811 603.176 826.118 603.177Z" fill="#AAB7FD"/>
<path d="M788.214 642.401H839.577C840.334 642.401 841.06 642.701 841.595 643.236C842.131 643.771 842.431 644.497 842.431 645.254C842.431 646.83 841.154 648.107 839.578 648.107H788.214C786.639 648.107 785.361 646.83 785.361 645.254C785.361 643.678 786.639 642.401 788.214 642.401Z" fill="white"/>
<path d="M887.732 439.542H899.596L901.169 443.089H925.62C926.513 443.089 927.37 443.443 928.001 444.075C928.633 444.706 928.987 445.563 928.987 446.456V481.442H884.366V442.905C884.368 441.047 885.874 439.542 887.732 439.542V439.542Z" fill="white"/>
<path d="M910.588 450.49H867.252C866.565 450.49 865.931 450.855 865.585 451.448C865.24 452.041 865.236 452.773 865.575 453.37L882.045 482.357C882.387 482.96 883.027 483.332 883.721 483.332H927.059C927.745 483.332 928.38 482.967 928.725 482.374C929.071 481.781 929.075 481.049 928.736 480.452L912.266 451.465C911.923 450.862 911.282 450.489 910.588 450.49V450.49Z" fill="#AAB7FD"/>
<path d="M872.682 489.714H924.045C924.802 489.714 925.528 490.014 926.063 490.549C926.598 491.084 926.899 491.81 926.899 492.567C926.899 494.143 925.622 495.42 924.046 495.42H872.682C871.106 495.42 869.829 494.143 869.829 492.567C869.829 490.991 871.106 489.714 872.682 489.714Z" fill="white"/>
<path d="M887.732 516.142H899.596L901.169 519.689H925.62C926.513 519.689 927.37 520.043 928.001 520.675C928.632 521.306 928.987 522.162 928.987 523.055V558.042H884.366V519.51C884.366 518.617 884.72 517.76 885.351 517.129C885.983 516.497 886.839 516.142 887.732 516.142V516.142Z" fill="white"/>
<path d="M910.587 527.095H867.251C866.565 527.095 865.929 527.46 865.584 528.053C865.239 528.647 865.235 529.379 865.574 529.976L882.044 558.962C882.387 559.565 883.027 559.938 883.72 559.938H927.058C927.745 559.938 928.38 559.573 928.726 558.98C929.071 558.386 929.075 557.654 928.735 557.057L912.265 528.071C911.922 527.467 911.281 527.095 910.587 527.095V527.095Z" fill="#AAB7FD"/>
<path d="M872.682 566.32H924.045C924.802 566.32 925.528 566.62 926.063 567.155C926.598 567.69 926.899 568.416 926.899 569.173C926.899 570.749 925.622 572.026 924.046 572.026H872.682C871.106 572.026 869.829 570.749 869.829 569.173C869.829 567.597 871.106 566.32 872.682 566.32Z" fill="white"/>
<path d="M971.802 439.542H983.665L985.239 443.089H1009.69C1010.58 443.089 1011.44 443.444 1012.07 444.075C1012.7 444.707 1013.06 445.563 1013.06 446.456V481.442H968.435V442.905C968.436 441.047 969.943 439.541 971.802 439.542V439.542Z" fill="white"/>
<path d="M994.659 450.49H951.323C950.636 450.49 950.001 450.854 949.656 451.448C949.311 452.041 949.307 452.773 949.647 453.37L966.116 482.357C966.459 482.96 967.099 483.332 967.793 483.332H1011.13C1011.81 483.332 1012.45 482.967 1012.79 482.374C1013.14 481.781 1013.14 481.049 1012.8 480.452L996.335 451.465C995.992 450.862 995.352 450.49 994.659 450.49Z" fill="#AAB7FD"/>
<path d="M956.75 489.714H1008.11C1008.87 489.714 1009.6 490.014 1010.13 490.549C1010.67 491.084 1010.97 491.81 1010.97 492.567C1010.97 494.143 1009.69 495.42 1008.11 495.42H956.75C955.175 495.42 953.897 494.143 953.897 492.567C953.897 490.991 955.175 489.714 956.75 489.714Z" fill="white"/>
<path d="M971.802 516.142H983.665L985.239 519.689H1009.69C1011.55 519.689 1013.06 521.196 1013.06 523.055V558.042H968.435V519.51C968.434 518.617 968.789 517.76 969.42 517.128C970.052 516.497 970.908 516.142 971.802 516.142V516.142Z" fill="white"/>
<path d="M994.659 527.095H951.323C950.636 527.095 950.001 527.46 949.656 528.053C949.311 528.647 949.307 529.379 949.647 529.976L966.116 558.962C966.458 559.565 967.099 559.938 967.793 559.938H1011.13C1011.82 559.938 1012.45 559.573 1012.8 558.979C1013.14 558.386 1013.14 557.654 1012.8 557.057L996.335 528.071C995.992 527.468 995.352 527.095 994.659 527.095V527.095Z" fill="#AAB7FD"/>
<path d="M956.75 566.32H1008.11C1008.87 566.32 1009.6 566.62 1010.13 567.155C1010.67 567.69 1010.97 568.416 1010.97 569.173C1010.97 570.749 1009.69 572.026 1008.11 572.026H956.75C955.175 572.026 953.897 570.749 953.897 569.173C953.897 567.597 955.175 566.32 956.75 566.32Z" fill="white"/>
<path d="M679.642 430.001H682.559C683.635 430.001 684.507 430.873 684.507 431.949V695.869C684.507 696.945 683.635 697.817 682.559 697.817H679.642C679.126 697.817 678.63 697.612 678.265 697.246C677.899 696.881 677.694 696.385 677.694 695.868V431.949C677.694 430.873 678.566 430.001 679.642 430.001Z" fill="white"/>
<path d="M593.202 437.673H600.124C601.399 437.673 602.433 438.707 602.433 439.982V446.904C602.433 448.179 601.399 449.213 600.124 449.213H593.202C591.926 449.213 590.893 448.179 590.893 446.904V439.982C590.893 438.707 591.926 437.673 593.202 437.673Z" fill="white"/>
<path d="M609.29 437.673H664.715C665.991 437.673 667.024 438.707 667.024 439.982V446.904C667.024 448.179 665.991 449.213 664.715 449.213H609.29C608.015 449.213 606.981 448.179 606.981 446.904V439.982C606.981 438.707 608.015 437.673 609.29 437.673Z" fill="white"/>
<path d="M593.202 459.557H600.124C601.399 459.557 602.433 460.591 602.433 461.866V468.788C602.433 470.063 601.399 471.097 600.124 471.097H593.202C591.926 471.097 590.893 470.063 590.893 468.788V461.866C590.893 460.591 591.926 459.557 593.202 459.557Z" fill="white"/>
<path d="M609.29 459.557H664.715C665.991 459.557 667.024 460.591 667.024 461.866V468.788C667.024 470.063 665.991 471.097 664.715 471.097H609.29C608.015 471.097 606.981 470.063 606.981 468.788V461.866C606.981 460.591 608.015 459.557 609.29 459.557Z" fill="white"/>
<path d="M593.202 481.443H600.124C601.399 481.443 602.433 482.477 602.433 483.752V490.674C602.433 491.949 601.399 492.983 600.124 492.983H593.202C591.926 492.983 590.893 491.949 590.893 490.674V483.752C590.893 482.477 591.926 481.443 593.202 481.443Z" fill="white"/>
<path d="M609.29 481.443H664.715C665.991 481.443 667.024 482.477 667.024 483.752V490.674C667.024 491.949 665.991 492.983 664.715 492.983H609.29C608.015 492.983 606.981 491.949 606.981 490.674V483.752C606.981 482.477 608.015 481.443 609.29 481.443Z" fill="white"/>
<path d="M593.202 503.326H600.124C601.399 503.326 602.433 504.36 602.433 505.635V512.557C602.433 513.832 601.399 514.866 600.124 514.866H593.202C591.926 514.866 590.893 513.832 590.893 512.557V505.635C590.893 504.36 591.926 503.326 593.202 503.326Z" fill="white"/>
<path d="M609.29 503.326H664.715C665.991 503.326 667.024 504.36 667.024 505.635V512.557C667.024 513.832 665.991 514.866 664.715 514.866H609.29C608.015 514.866 606.981 513.832 606.981 512.557V505.635C606.981 504.36 608.015 503.326 609.29 503.326Z" fill="white"/>
<path d="M593.202 525.211H600.124C601.399 525.211 602.433 526.245 602.433 527.52V534.442C602.433 535.717 601.399 536.751 600.124 536.751H593.202C591.926 536.751 590.893 535.717 590.893 534.442V527.52C590.893 526.245 591.926 525.211 593.202 525.211Z" fill="white"/>
<path d="M609.29 525.211H664.715C665.991 525.211 667.024 526.245 667.024 527.52V534.442C667.024 535.717 665.991 536.751 664.715 536.751H609.29C608.015 536.751 606.981 535.717 606.981 534.442V527.52C606.981 526.245 608.015 525.211 609.29 525.211Z" fill="white"/>
<path d="M593.202 547.094H600.124C601.399 547.094 602.433 548.128 602.433 549.403V556.325C602.433 557.6 601.399 558.634 600.124 558.634H593.202C591.926 558.634 590.893 557.6 590.893 556.325V549.403C590.893 548.128 591.926 547.094 593.202 547.094Z" fill="white"/>
<path d="M609.29 547.094H664.715C665.991 547.094 667.024 548.128 667.024 549.403V556.325C667.024 557.6 665.991 558.634 664.715 558.634H609.29C608.015 558.634 606.981 557.6 606.981 556.325V549.403C606.981 548.128 608.015 547.094 609.29 547.094Z" fill="white"/>
<path d="M42.919 399H254.893C278.597 399 297.812 418.215 297.812 441.919V924.171C297.812 947.875 278.597 967.09 254.893 967.09H42.919C19.2155 967.09 0 947.875 0 924.171V441.919C0 418.215 19.2155 399 42.919 399Z" fill="#3344A8"/>
<path d="M256.105 954.909H41.7053C25.2472 954.909 11.9053 941.567 11.9053 925.109V440.976C11.9053 424.518 25.2472 411.176 41.7053 411.176H62.8583L72.1873 420.736H218.336L231.811 411.176H256.105C272.563 411.176 285.905 424.518 285.905 440.976V925.112C285.904 941.569 272.562 954.909 256.105 954.909Z" fill="#AAB7FD"/>
<path d="M89.8768 451.417H261.487C264.359 451.417 266.687 453.745 266.687 456.617C266.687 459.489 264.359 461.817 261.487 461.817H89.8768C87.0049 461.817 84.6768 459.489 84.6768 456.617C84.6768 453.745 87.0049 451.417 89.8768 451.417Z" fill="#DADFFD"/>
<path d="M89.8768 471.577H201.677C203.056 471.577 204.379 472.125 205.354 473.1C206.329 474.075 206.877 475.398 206.877 476.777C206.877 478.156 206.329 479.479 205.354 480.454C204.379 481.429 203.056 481.977 201.677 481.977H89.8768C87.0049 481.977 84.6768 479.649 84.6768 476.777C84.6768 473.905 87.0049 471.577 89.8768 471.577Z" fill="#DADFFD"/>
<path d="M38.8855 518.299H68.1105C75.4924 518.299 81.4765 524.283 81.4765 531.665V560.89C81.4765 568.272 75.4924 574.256 68.1105 574.256H38.8855C31.5037 574.256 25.5195 568.272 25.5195 560.89V531.665C25.5195 524.283 31.5037 518.299 38.8855 518.299Z" fill="#DADFFD"/>
<path d="M38.8855 601.889H82.2695C89.6514 601.889 95.6355 607.873 95.6355 615.255V766.465C95.6355 773.847 89.6514 779.831 82.2695 779.831H38.8855C35.3406 779.831 31.941 778.423 29.4343 775.916C26.9277 773.41 25.5195 770.01 25.5195 766.465V615.255C25.5195 607.873 31.5037 601.889 38.8855 601.889Z" fill="#DADFFD"/>
<path d="M124.409 601.889H167.793C175.175 601.889 181.159 607.873 181.159 615.255V766.465C181.159 773.847 175.175 779.831 167.793 779.831H124.409C120.864 779.831 117.464 778.423 114.958 775.916C112.451 773.41 111.043 770.01 111.043 766.465V615.255C111.043 607.873 117.027 601.889 124.409 601.889Z" fill="#DADFFD"/>
<path d="M209.933 601.889H253.317C260.699 601.889 266.683 607.873 266.683 615.255V766.465C266.683 773.847 260.699 779.831 253.317 779.831H209.933C206.388 779.831 202.989 778.423 200.482 775.916C197.976 773.41 196.567 770.01 196.567 766.465V615.255C196.567 607.873 202.552 601.889 209.933 601.889Z" fill="#DADFFD"/>
<path d="M97.7505 518.299H188.402C190.574 518.299 192.656 519.162 194.191 520.697C195.726 522.232 196.588 524.314 196.588 526.485C196.588 528.656 195.726 530.738 194.191 532.273C192.656 533.809 190.574 534.671 188.402 534.671H97.7505C93.2295 534.671 89.5645 531.006 89.5645 526.485C89.5645 521.964 93.2295 518.299 97.7505 518.299Z" fill="#DADFFD"/>
<path d="M46.8255 451.388C58.5925 451.388 68.1315 460.927 68.1315 472.694C68.1315 484.461 58.5925 494 46.8255 494C35.0586 494 25.5195 484.461 25.5195 472.694C25.5195 460.927 35.0586 451.388 46.8255 451.388Z" fill="#DADFFD"/>
<path d="M46.8256 458.929C50.9319 458.929 54.2606 462.258 54.2606 466.364C54.2606 470.47 50.9319 473.799 46.8256 473.799C42.7194 473.799 39.3906 470.47 39.3906 466.364C39.3906 462.258 42.7194 458.929 46.8256 458.929Z" fill="white"/>
<path d="M54.2207 474.014C52.3182 476.335 49.491 477.701 46.4906 477.749C43.4901 477.798 40.6202 476.524 38.6437 474.266C34.3178 476.052 30.6896 479.196 28.3057 483.223C32.107 489.881 39.1822 493.993 46.8487 494.001H46.9627C54.5021 493.983 61.4697 489.979 65.2817 483.474C62.815 479.124 58.9009 475.776 54.2207 474.014V474.014Z" fill="white"/>
<path d="M97.5776 549.688L99.6596 553.907L104.316 554.584L100.947 557.868L101.747 562.505L97.5826 560.316L93.4186 562.505L94.2186 557.868L90.8496 554.584L95.5056 553.907L97.5776 549.688Z" fill="#DADFFD"/>
<path d="M114.472 549.688L116.554 553.907L121.21 554.584L117.841 557.868L118.641 562.505L114.477 560.316L110.313 562.505L111.113 557.868L107.744 554.584L112.4 553.907L114.472 549.688Z" fill="#DADFFD"/>
<path d="M131.367 549.688L133.449 553.907L138.105 554.584L134.736 557.868L135.536 562.505L131.372 560.316L127.208 562.505L128.008 557.868L124.639 554.584L129.295 553.907L131.367 549.688Z" fill="#DADFFD"/>
<path fill-rule="evenodd" clip-rule="evenodd" d="M144.355 558.042L143.432 563.419L148.263 560.881L153.091 563.419L152.169 558.042L156.076 554.235L150.676 553.45L148.262 548.558L145.848 553.45L140.448 554.235L144.355 558.042ZM151.093 557.69L151.761 561.59L148.261 559.751L144.759 561.594L145.427 557.694L142.598 554.93L146.511 554.361L148.261 550.815L150.011 554.361L153.924 554.93L151.093 557.69Z" fill="#DADFFD"/>
<path fill-rule="evenodd" clip-rule="evenodd" d="M165.155 560.881L169.984 563.419L169.063 558.042L172.97 554.235L167.57 553.45L165.156 548.558L162.742 553.45L157.342 554.235L161.249 558.042L160.327 563.419L165.155 560.881ZM168.655 561.59L165.155 559.751L161.659 561.594L162.327 557.694L159.491 554.93L163.404 554.361L165.154 550.815L166.904 554.361L170.818 554.93L167.986 557.69L168.655 561.59Z" fill="#DADFFD"/>
<path fill-rule="evenodd" clip-rule="evenodd" d="M225.571 543.463H248.911L248.912 543.461C253.298 543.46 257.29 540.926 259.158 536.958C261.027 532.99 260.437 528.3 257.643 524.918C254.85 521.536 250.356 520.07 246.106 521.155C243.726 516.195 238.231 513.542 232.867 514.763C227.503 515.984 223.698 520.754 223.698 526.255V526.389C220.437 528.147 218.57 531.71 218.982 535.392C219.394 539.075 222.002 542.137 225.571 543.131V543.463ZM248.911 539.463H227.873L227.692 539.457C225.255 539.313 223.266 537.455 222.955 535.034C222.644 532.612 224.1 530.312 226.421 529.557L228.014 529.034L227.777 527.374C227.184 523.299 229.868 519.466 233.901 518.631C237.934 517.795 241.919 520.245 242.994 524.221L243.617 526.531L245.78 525.507C248.499 524.225 251.725 524.733 253.918 526.789C256.111 528.845 256.826 532.032 255.721 534.827C254.617 537.623 251.917 539.461 248.911 539.463Z" fill="#DADFFD"/>
<path d="M236.728 531.194V560.303C236.728 561.132 237.399 561.803 238.228 561.803C239.056 561.803 239.728 561.132 239.728 560.303V531.194C239.728 530.366 239.056 529.694 238.228 529.694C237.399 529.694 236.728 530.366 236.728 531.194Z" fill="#DADFFD"/>
<path d="M228.543 551.487L237.165 561.363C237.752 561.945 238.698 561.945 239.286 561.363L247.908 551.487C249.172 550.039 247.059 547.908 245.786 549.366L237.165 559.242H239.286L230.665 549.366C229.393 547.909 227.278 550.038 228.543 551.487Z" fill="#DADFFD"/>
<path d="M38.8855 816.811H68.1105C75.4924 816.811 81.4765 822.795 81.4765 830.177V859.402C81.4765 866.784 75.4924 872.768 68.1105 872.768H38.8855C31.5037 872.768 25.5195 866.784 25.5195 859.402V830.177C25.5195 822.795 31.5037 816.811 38.8855 816.811Z" fill="#DADFFD"/>
<path d="M181.16 954.972V910.316C181.143 904.846 176.713 900.417 171.244 900.401H120.959C115.49 900.417 111.06 904.847 111.044 910.316V954.972H181.16Z" fill="#DADFFD"/>
<path d="M256.768 900.401H206.483C201.014 900.417 196.584 904.846 196.567 910.316V954.909H256.105C259.72 954.911 263.305 954.254 266.683 952.969V910.316C266.667 904.847 262.238 900.417 256.768 900.401Z" fill="#DADFFD"/>
<path d="M97.7505 816.811H188.402C190.574 816.811 192.656 817.673 194.191 819.209C195.726 820.744 196.588 822.826 196.588 824.997C196.588 827.168 195.726 829.25 194.191 830.785C192.656 832.321 190.574 833.183 188.402 833.183H97.7505C93.2295 833.183 89.5645 829.518 89.5645 824.997C89.5645 820.476 93.2295 816.811 97.7505 816.811Z" fill="#DADFFD"/>
<path d="M97.5776 848.199L99.6596 852.418L104.316 853.095L100.947 856.379L101.747 861.016L97.5826 858.827L93.4186 861.016L94.2186 856.379L90.8496 853.095L95.5056 852.418L97.5776 848.199Z" fill="#DADFFD"/>
<path d="M114.472 848.199L116.554 852.418L121.21 853.095L117.841 856.379L118.641 861.016L114.477 858.827L110.313 861.016L111.113 856.379L107.744 853.095L112.4 852.418L114.472 848.199Z" fill="#DADFFD"/>
<path d="M131.367 848.199L133.449 852.418L138.105 853.095L134.736 856.379L135.536 861.016L131.372 858.827L127.208 861.016L128.008 856.379L124.627 853.094L129.283 852.417L131.367 848.199Z" fill="#DADFFD"/>
<path fill-rule="evenodd" clip-rule="evenodd" d="M144.355 856.554L143.432 861.93L148.265 859.391L153.093 861.93L152.171 856.554L156.077 852.747L150.677 851.962L148.263 847.069L145.849 851.962L140.449 852.747L144.355 856.554ZM151.093 856.202L151.761 860.102L148.261 858.262L144.761 860.102L145.429 856.202L142.597 853.441L146.511 852.873L148.261 849.326L150.011 852.873L153.925 853.441L151.093 856.202Z" fill="#DADFFD"/>
<path fill-rule="evenodd" clip-rule="evenodd" d="M165.155 859.391L169.984 861.93L169.064 856.554L172.971 852.747L167.571 851.962L165.157 847.069L162.743 851.962L157.343 852.747L161.249 856.554L160.327 861.93L165.155 859.391ZM168.655 860.102L165.155 858.262L161.654 860.102L162.322 856.202L159.49 853.441L163.404 852.873L165.154 849.326L166.904 852.873L170.818 853.441L167.986 856.202L168.655 860.102Z" fill="#DADFFD"/>
<path fill-rule="evenodd" clip-rule="evenodd" d="M225.571 841.974H248.911L248.912 841.971C253.299 841.971 257.292 839.438 259.161 835.469C261.031 831.5 260.441 826.809 257.646 823.427C254.852 820.044 250.357 818.579 246.106 819.666C243.726 814.706 238.231 812.053 232.867 813.274C227.503 814.495 223.698 819.265 223.698 824.766V824.9C220.437 826.658 218.57 830.221 218.982 833.903C219.394 837.586 222.002 840.648 225.571 841.642V841.974ZM248.911 837.974H227.873L227.692 837.969C225.255 837.825 223.265 835.968 222.954 833.546C222.643 831.125 224.099 828.824 226.42 828.069L228.014 827.547L227.777 825.885C227.185 821.81 229.869 817.979 233.902 817.144C237.934 816.308 241.919 818.758 242.994 822.733L243.617 825.044L245.78 824.019C246.759 823.555 247.829 823.316 248.911 823.319C251.55 823.288 254.001 824.678 255.329 826.958C256.657 829.238 256.657 832.055 255.329 834.335C254.001 836.615 251.55 838.005 248.911 837.974Z" fill="#DADFFD"/>
<path d="M236.727 829.704V858.814C236.727 859.643 237.398 860.314 238.227 860.314C239.055 860.314 239.727 859.643 239.727 858.814V829.704C239.727 828.876 239.055 828.204 238.227 828.204C237.398 828.204 236.727 828.876 236.727 829.704Z" fill="#DADFFD"/>
<path d="M228.542 849.994L237.164 859.87C237.751 860.451 238.697 860.451 239.285 859.87L247.907 849.994C249.171 848.545 247.058 846.415 245.785 847.873L237.164 857.748H239.285L230.664 847.873C229.392 846.415 227.277 848.545 228.542 849.994Z" fill="#DADFFD"/>
<path d="M41.7055 954.909H95.6355V910.316C95.6191 904.847 91.1896 900.417 85.7205 900.401H35.4345C29.9655 900.417 25.536 904.847 25.5195 910.316V950.124C30.3374 953.253 35.9606 954.916 41.7055 954.909Z" fill="#DADFFD"/>
<path d="M934.052 978.145H1262.67V1020.1H934.052V978.145Z" fill="#DADFFD"/>
<path d="M924.986 757.778H1271.74C1282.63 757.778 1291.46 766.607 1291.46 777.498V977.965C1291.46 988.856 1282.63 997.685 1271.74 997.685H924.986C914.095 997.685 905.266 988.856 905.266 977.965V777.498C905.266 766.607 914.095 757.778 924.986 757.778Z" fill="#3344A8"/>
<path d="M931.349 775.838H1265.38C1270.22 775.838 1274.15 779.766 1274.15 784.611V813.274C1274.15 818.119 1270.22 822.047 1265.38 822.047H931.349C926.504 822.047 922.576 818.119 922.576 813.274V784.611C922.576 779.766 926.504 775.838 931.349 775.838Z" fill="#DADFFD"/>
<path d="M931.349 831.387H1265.38C1270.22 831.387 1274.15 835.315 1274.15 840.16V868.823C1274.15 873.668 1270.22 877.596 1265.38 877.596H931.349C926.504 877.596 922.576 873.668 922.576 868.823V840.16C922.576 835.315 926.504 831.387 931.349 831.387Z" fill="#DADFFD"/>
<path d="M1016.21 812.846H1180.52C1188.04 812.846 1194.13 818.943 1194.13 826.464C1194.13 833.985 1188.04 840.082 1180.52 840.082H1016.21C1008.69 840.082 1002.59 833.985 1002.59 826.464C1002.59 818.943 1008.69 812.846 1016.21 812.846Z" fill="#3344A8"/>
<path d="M931.349 886.163H1265.38C1270.22 886.163 1274.15 890.091 1274.15 894.936V923.599C1274.15 928.444 1270.22 932.372 1265.38 932.372H931.349C926.504 932.372 922.576 928.444 922.576 923.599V894.936C922.576 890.091 926.504 886.163 931.349 886.163Z" fill="#DADFFD"/>
<path d="M942.697 943.042H949.516C953.832 943.042 957.972 944.757 961.024 947.809C964.076 950.861 965.791 955.001 965.791 959.317C965.791 963.634 964.077 967.773 961.024 970.826C957.972 973.878 953.832 975.593 949.516 975.593H942.697C938.38 975.593 934.241 973.878 931.188 970.826C928.136 967.773 926.422 963.634 926.422 959.317C926.422 950.329 933.708 943.042 942.697 943.042Z" fill="#DADFFD"/>
<path d="M983.528 950.105H1002.78C1003.54 950.106 1004.15 950.722 1004.15 951.482V966.919C1004.15 967.679 1003.53 968.296 1002.77 968.296H983.528C982.768 968.296 982.151 967.679 982.151 966.919V951.482C982.151 950.721 982.768 950.105 983.528 950.105Z" fill="#DADFFD"/>
<path d="M1015.73 950.105H1034.98C1035.74 950.106 1036.35 950.722 1036.35 951.482V966.919C1036.35 967.679 1035.74 968.296 1034.98 968.296H1015.73C1014.97 968.296 1014.35 967.679 1014.35 966.919V951.482C1014.35 950.721 1014.97 950.105 1015.73 950.105Z" fill="#DADFFD"/>
<path d="M1047.59 950.105H1066.83C1067.59 950.106 1068.21 950.722 1068.21 951.482V966.919C1068.21 967.679 1067.59 968.296 1066.83 968.296H1047.59C1046.83 968.296 1046.21 967.679 1046.21 966.919V951.482C1046.21 950.721 1046.83 950.105 1047.59 950.105Z" fill="#DADFFD"/>
<path d="M1079.79 950.105H1099.04C1099.79 950.106 1100.41 950.722 1100.41 951.482V966.919C1100.41 967.679 1099.79 968.296 1099.03 968.296H1079.79C1079.03 968.296 1078.41 967.679 1078.41 966.919V951.482C1078.41 950.721 1079.03 950.105 1079.79 950.105Z" fill="#DADFFD"/>
<path d="M1112.39 950.105H1264.74C1265.7 950.105 1266.48 950.884 1266.48 951.845V952.467C1266.48 953.428 1265.7 954.207 1264.74 954.207H1112.39C1111.43 954.207 1110.65 953.429 1110.65 952.468V951.845C1110.65 950.884 1111.43 950.105 1112.39 950.105Z" fill="#DADFFD"/>
<path d="M1112.39 956.97H1264.74C1265.7 956.97 1266.48 957.749 1266.48 958.71V959.332C1266.48 960.293 1265.7 961.072 1264.74 961.072H1112.39C1111.43 961.072 1110.65 960.294 1110.65 959.333V958.71C1110.65 957.749 1111.43 956.97 1112.39 956.97Z" fill="#DADFFD"/>
<path d="M1112.39 963.793H1264.74C1265.7 963.793 1266.48 964.572 1266.48 965.533V966.155C1266.48 967.116 1265.7 967.895 1264.74 967.895H1112.39C1111.43 967.895 1110.65 967.117 1110.65 966.156V965.533C1110.65 964.572 1111.43 963.793 1112.39 963.793Z" fill="#DADFFD"/>
<path d="M1016.21 868.236H1180.52C1188.04 868.236 1194.13 874.333 1194.13 881.854C1194.13 889.375 1188.04 895.472 1180.52 895.472H1016.21C1008.69 895.472 1002.59 889.375 1002.59 881.854C1002.59 874.333 1008.69 868.236 1016.21 868.236Z" fill="#3344A8"/>
<path d="M945.702 789.711C950.8 789.711 954.933 793.844 954.933 798.942C954.933 804.04 950.8 808.173 945.702 808.173C940.604 808.173 936.471 804.04 936.471 798.942C936.471 793.844 940.604 789.711 945.702 789.711Z" fill="#3344A8"/>
<path d="M945.702 845.26C950.8 845.26 954.933 849.393 954.933 854.491C954.933 859.589 950.8 863.722 945.702 863.722C940.604 863.722 936.471 859.589 936.471 854.491C936.471 849.393 940.604 845.26 945.702 845.26Z" fill="#3344A8"/>
<path d="M945.702 900.036C950.8 900.036 954.933 904.169 954.933 909.267C954.933 914.365 950.8 918.498 945.702 918.498C940.604 918.498 936.471 914.365 936.471 909.267C936.471 904.169 940.604 900.036 945.702 900.036Z" fill="#3344A8"/>
<path d="M608.466 1089.75L573.942 1091.59L549.831 1075L584.998 1073.34L608.466 1089.75Z" fill="#FFB39F"/>
<path d="M645.982 1103.59C642.661 1093.65 616.982 1093.91 607.623 1088.15C596.231 1081.15 593.975 1079.34 593.975 1079.34L558.615 1081.07L559.066 1113.82L646.321 1114.19C646.486 1110.65 646.373 1107.11 645.982 1103.59Z" fill="black"/>
<path d="M613.993 1126.23L579.469 1128.06L555.355 1111.47L590.522 1109.81L613.993 1126.23Z" fill="#FFB39F"/>
<path d="M661.339 1146.77C658.018 1136.83 632.345 1137.09 622.981 1131.33C611.588 1124.33 609.333 1122.52 609.333 1122.52L573.979 1124.24L574.43 1157L661.685 1157.36C661.847 1153.83 661.731 1150.29 661.339 1146.77Z" fill="black"/>
<path d="M513.572 955.663C528.91 996.775 548.872 1066.63 517.628 1097C480.165 1133.42 374.273 1154.18 344.041 1155.62C328.985 1156.33 234.446 1168.66 183.358 1141.44C139.83 1118.24 136.865 1064.7 143.958 968.573C153.824 834.794 137.758 764.58 261.995 753.517C349.845 745.692 312.323 800.168 392.108 853.957C459.978 899.717 493.915 902.976 513.572 955.663Z" fill="#3344A8"/>
<path d="M319.249 720.319C305.217 704.05 282.649 703.945 277.594 708.78C274.957 711.143 273.518 714.564 273.674 718.101C273.674 718.101 272.683 709.689 256.81 720.559C244.454 729.023 249.404 788.492 274.993 799.081C282.325 802.111 347.059 752.558 319.249 720.319Z" fill="#1A2043"/>
<path d="M296.392 824.29H263.172V759.398H296.392V824.29Z" fill="#E09B8D"/>
<path d="M263.124 766.749C267.136 777.029 280.153 799.206 288.953 799.557C299.693 799.985 318.053 771.123 317.053 752.282C316.979 750.853 308.088 754.782 300.653 750.939C288.942 744.888 276.71 730.682 276.71 730.682L268.916 752.219C268.916 752.219 266.749 744.771 263.392 743.092C257.957 740.376 255.792 749.969 256.427 753.66C258.835 767.59 263.028 766.503 263.124 766.749Z" fill="#FFB39F"/>
<path d="M278.901 835.19C267.171 813.299 262.346 799.935 262.346 799.935L296.493 802.085C296.493 802.085 328.946 851.091 317.346 859.045C306.102 866.751 290.631 857.08 278.901 835.19Z" fill="#E09B8D"/>
<path d="M290.957 955.518C290.957 955.518 403.884 936.318 440.117 944.776C476.952 953.37 588.037 1075.19 588.037 1075.19L552.907 1077.27C552.907 1077.27 466.336 1036.35 441.53 1016.99C428.406 1006.75 413.75 988.005 413.75 988.005C413.75 988.005 324.32 1013.61 299.817 988.347C292.647 980.956 290.957 955.518 290.957 955.518Z" fill="#808080"/>
<path d="M399.381 918.404C384.767 912.189 337.218 885.404 337.218 885.404L314.579 838.592L301.15 856.626L329.161 915.335L397.078 932.598C397.549 927.831 398.809 923.163 399.381 918.404Z" fill="#EEEEEE"/>
<path d="M299.842 973.97C299.842 973.97 387.05 960.922 423.284 969.376C460.119 977.976 600.307 1116.59 600.307 1116.59L569.045 1120.71C567.277 1120.93 565.481 1120.63 563.889 1119.82C548.725 1112.17 467.484 1070.85 445.023 1053.32C431.9 1043.08 417.245 1024.33 417.245 1024.33C417.245 1024.33 327.815 1049.94 303.312 1024.67C296.142 1017.28 299.842 973.97 299.842 973.97Z" fill="#959595"/>
<path d="M359.78 922.815L300.339 986.749L368.016 992.386L435.516 931.273C436.328 930.539 436.627 929.394 436.276 928.357C435.926 927.32 434.994 926.59 433.903 926.499L359.78 922.815Z" fill="#909090"/>
<path d="M434.444 847.559L365.103 910.239L365.618 989.579L434.959 926.899L434.444 847.559Z" fill="#B7B7B7"/>
<path d="M396.351 922.853C397.914 926.763 402.315 928.179 406.225 926.615C410.135 925.051 412.438 918.179 410.874 914.27C409.31 910.361 405.014 909.934 401.105 911.497C397.196 913.06 394.786 918.943 396.351 922.853Z" fill="white"/>
<path d="M296.429 802.19C296.429 802.19 297.629 799.557 313.32 821.634C323.547 836.022 323.382 844.776 328.498 875.773C330.775 889.566 340.673 950.636 340.673 950.636L306.801 996.366C306.801 996.366 263.993 965.944 259.32 962.124C250.871 955.218 229.188 916.924 223.252 898.207C220.613 889.883 222.452 860.081 234.062 824.588C240.418 805.156 251.657 799.672 262.917 799.923C263.83 799.944 281.888 815.697 288.104 815.352C300.324 814.674 296.262 802.012 296.429 802.19Z" fill="black"/>
<path d="M422.09 1080.28C422.33 1088.91 369.48 1088.62 348.822 1086.75C313.513 1083.55 182.622 1082.87 175.472 1018.43C172.839 994.692 226.816 821.313 225.527 861.044C224.677 887.233 225.357 899.676 237.798 915.77C241.174 920.137 248.298 931.57 256.766 935.179C294.98 951.454 359.152 981.37 376.256 992.723C404.203 1011.27 421.834 1071.08 422.09 1080.28Z" fill="#3344A8"/>
<path d="M310.068 951.591L321.791 952.468C321.791 952.468 341.343 956.747 349.658 953.921C354.058 952.421 366.751 950.833 365.601 945.002C365.306 943.502 347.501 943.019 347.435 941.944C347.227 938.37 354.648 939.544 353.923 935.635C353.597 933.875 352.332 935.068 350.752 935.176C339.752 935.927 331.552 933.818 325.29 940.476C325.248 940.522 319.805 939.358 311.365 937.52C311.304 942.237 310.871 946.942 310.068 951.591Z" fill="#FFB39F"/>
<path d="M320.179 937.361L261.047 917.761C261.047 917.761 266.997 833.455 254.992 829.239C245.969 826.069 235.252 829.667 232.623 838.862C228.791 852.262 226.803 931.092 238.994 937.853C241.885 939.453 302.238 955.653 318.43 953.721C320.734 949.611 320.179 937.361 320.179 937.361Z" fill="#EEEEEE"/>
</svg>
