<svg id="image" xmlns="http://www.w3.org/2000/svg" width="122.563" height="122.564" viewBox="0 0 122.563 122.564">
  <path id="Path_1120" data-name="Path 1120" d="M61.282,0A61.282,61.282,0,1,1,0,61.282,61.282,61.282,0,0,1,61.282,0Z" transform="translate(0 0)" fill="#dadffd"/>
  <path id="Path_1119" data-name="Path 1119" d="M21.383,0A21.383,21.383,0,1,1,0,21.383,21.383,21.383,0,0,1,21.383,0Z" transform="translate(39.898 21.688)" fill="#fff"/>
  <path id="Path_418" data-name="Path 418" d="M801.637,401.236a29.364,29.364,0,0,1-44.805.725A62.1,62.1,0,0,0,727.1,427.726a61.493,61.493,0,0,0,53.336,31h.329a61.237,61.237,0,0,0,52.687-30.279A61.459,61.459,0,0,0,801.637,401.236Z" transform="translate(-719.085 -336.16)" fill="#fff"/>
</svg>
